<?xml version="1.0" standalone="no"?>
<!DOCTYPE svg PUBLIC "-//W3C//DTD SVG 20010904//EN"
 "http://www.w3.org/TR/2001/REC-SVG-20010904/DTD/svg10.dtd">
<svg version="1.0" xmlns="http://www.w3.org/2000/svg"
 width="96.000000pt" height="96.000000pt" viewBox="0 0 96.000000 96.000000"
 preserveAspectRatio="xMidYMid meet">
<metadata>
Created by potrace 1.10, written by Peter Selinger 2001-2011
</metadata>
<g transform="translate(0.000000,96.000000) scale(0.100000,-0.100000)"
fill="#000000" stroke="none">
<path d="M389 935 c-8 -6 -43 -22 -79 -35 -134 -46 -230 -110 -230 -152 0 -27
34 -56 79 -68 l41 -11 0 -62 c0 -58 -10 -110 -41 -214 -9 -30 -10 -46 -3 -53
6 -6 53 -21 105 -34 l94 -23 -68 -13 c-37 -8 -82 -22 -99 -33 l-32 -19 52 -17
c92 -32 245 -151 192 -151 -5 0 -19 11 -32 24 -40 41 -92 41 -70 -1 9 -17 2
-18 -109 -18 -95 0 -122 3 -129 15 -13 20 -13 107 0 115 5 3 10 12 10 18 -1 7
-10 1 -20 -12 -22 -25 -26 -83 -10 -125 l10 -26 406 0 407 0 -7 42 c-9 57 -45
128 -77 151 -15 11 -60 27 -100 37 l-74 17 40 7 c79 15 150 38 161 52 9 11 6
33 -14 92 -21 63 -25 97 -26 192 -1 107 1 119 27 167 33 64 34 83 3 112 -30
28 -82 41 -166 40 l-65 0 85 -23 c86 -23 130 -41 130 -54 0 -18 -50 -126 -61
-133 -10 -6 -11 -9 -1 -9 7 0 12 -15 12 -41 0 -38 -2 -41 -22 -35 -101 30
-353 31 -437 1 -24 -8 -47 -15 -52 -15 -17 0 -9 39 9 44 42 13 205 38 285 43
48 3 89 9 91 12 8 12 -247 1 -310 -14 -85 -20 -102 -19 -143 6 -33 20 -33 20
-15 41 36 39 173 106 299 145 28 8 61 19 75 23 18 6 6 8 -41 8 -39 0 -73 -5
-80 -13z m169 -282 c-10 -2 -18 -9 -18 -14 0 -5 30 -7 68 -4 l69 4 38 -39 c32
-33 39 -47 38 -77 -1 -26 -8 -44 -25 -58 -12 -11 -32 -38 -43 -59 -11 -21 -41
-57 -66 -80 -25 -22 -65 -73 -90 -113 -24 -40 -46 -72 -49 -72 -3 0 -25 32
-50 72 -25 40 -65 91 -91 115 -25 23 -54 59 -65 79 -10 21 -29 46 -41 56 -17
14 -23 29 -23 60 0 39 4 45 55 84 30 24 55 40 55 35 0 -4 23 -8 50 -9 47 -1
66 9 38 20 -7 3 28 5 77 5 50 0 82 -2 73 -5z m-274 -302 c9 -12 4 -13 -32 -9
-60 8 -74 22 -59 56 18 42 28 43 55 4 13 -21 29 -43 36 -51z m486 48 c11 -25
11 -32 0 -39 -18 -11 -81 -23 -87 -16 -5 4 27 55 52 82 13 16 20 11 35 -27z
m-135 -149 c6 -4 36 -15 68 -25 34 -11 57 -23 57 -32 0 -8 4 -12 10 -8 12 7
40 -47 40 -78 0 -29 -26 -43 -48 -25 -12 10 -16 10 -19 1 -3 -8 -47 -12 -154
-12 l-150 -1 -47 44 c-26 24 -66 55 -89 70 -24 14 -43 28 -43 31 0 8 83 45
101 45 10 0 34 -27 59 -65 49 -76 69 -81 101 -27 59 97 76 109 114 82z"/>
<path d="M292 576 l-31 -35 28 -30 c24 -25 36 -31 68 -29 34 1 35 2 7 5 -17 2
-43 17 -58 32 -26 28 -27 28 -8 51 28 35 85 37 112 3 11 -14 20 -21 20 -14 0
23 -40 51 -73 51 -26 0 -41 -8 -65 -34z"/>
<path d="M552 594 c-12 -8 -22 -20 -22 -26 0 -6 10 -2 23 9 25 23 75 25 104 2
16 -12 16 -11 -1 9 -23 26 -71 29 -104 6z"/>
<path d="M361 573 c-9 -15 -12 -16 -20 -3 -9 12 -11 12 -17 -3 -8 -21 12 -47
36 -47 23 0 43 24 38 46 -4 25 -25 28 -37 7z"/>
<path d="M604 575 c-4 -10 -13 -13 -25 -10 -22 7 -26 -14 -7 -33 28 -28 75 -1
63 38 -8 24 -23 26 -31 5z"/>
<path d="M521 538 c-3 -54 98 -80 139 -36 30 33 24 46 -8 15 -44 -42 -103 -30
-125 24 -4 10 -6 9 -6 -3z"/>
<path d="M450 448 c0 -11 57 -10 64 1 3 5 -10 9 -29 8 -19 -1 -35 -5 -35 -9z"/>
<path d="M426 381 c-27 -6 -28 -7 -11 -21 26 -21 110 -20 132 3 16 16 16 17
-7 18 -14 1 -38 2 -55 3 -16 1 -43 0 -59 -3z"/>
<path d="M32 472 c-9 -6 -10 -16 -1 -40 6 -17 20 -70 32 -118 13 -49 28 -89
36 -92 11 -4 12 5 7 39 -4 24 -13 62 -21 84 -8 22 -14 51 -15 65 0 33 -11 70
-19 70 -3 0 -12 -4 -19 -8z"/>
<path d="M120 340 c0 -73 4 -120 10 -120 6 0 10 41 10 104 0 57 3 111 6 120 4
11 1 16 -10 16 -14 0 -16 -16 -16 -120z"/>
<path d="M90 171 c0 -22 47 -38 63 -22 15 15 -10 41 -39 41 -17 0 -24 -6 -24
-19z"/>
<path d="M74 105 c-9 -21 14 -45 42 -45 30 0 33 34 5 50 -27 14 -41 13 -47 -5z"/>
</g>
</svg>
